HIERARCHY
ROOT hip
{
  OFFSET 0 0 0
  CHANNELS 6 Xposition Yposition Zposition Zrotation Yrotation Xrotation
  JOINT abdomen
  {
    OFFSET 0 20.6881 -0.73152
    CHANNELS 3 Zrotation Xrotation Yrotation
    JOINT chest
    {
      OFFSET 0 11.7043 -0.48768
      CHANNELS 3 Zrotation Xrotation Yrotation
      JOINT neck
      {
        OFFSET 0 22.1894 -2.19456
        CHANNELS 3 Zrotation Xrotation Yrotation
        JOINT head
        {
          OFFSET -0.24384 7.07133 1.2192
          CHANNELS 3 Zrotation Xrotation Yrotation
          JOINT leftEye
          {
            OFFSET 4.14528 8.04674 8.04672
            CHANNELS 3 Zrotation Xrotation Yrotation
            End Site
            {
              OFFSET 1 0 0
            }
          }
          JOINT rightEye
          {
            OFFSET -3.6576 8.04674 8.04672
            CHANNELS 3 Zrotation Xrotation Yrotation
            End Site
            {
              OFFSET 1 0 0
            }
          }
        }
      }
      JOINT rCollar
      {
        OFFSET -2.68224 19.2634 -4.8768
        CHANNELS 3 Zrotation Xrotation Yrotation
        JOINT rShldr
        {
          OFFSET -8.77824 -1.95073 1.46304
          CHANNELS 3 Zrotation Xrotation Yrotation
          JOINT rForeArm
          {
            OFFSET -28.1742 -1.7115 0.48768
            CHANNELS 3 Zrotation Xrotation Yrotation
            JOINT rHand
            {
              OFFSET -22.5879 0.773209 7.07136
              CHANNELS 3 Zrotation Xrotation Yrotation
              JOINT rThumb1
              {
                OFFSET -1.2192 -0.487915 3.41376
                CHANNELS 3 Zrotation Xrotation Yrotation
                JOINT rThumb2
                {
                  OFFSET -3.37035 -0.52449 3.41376
                  CHANNELS 3 Zrotation Xrotation Yrotation
                  End Site
                  {
                    OFFSET -1.78271 -1.18214 1.43049
                  }
                }
              }
              JOINT rIndex1
              {
                OFFSET -7.75947 0.938293 5.60832
                CHANNELS 3 Zrotation Xrotation Yrotation
                JOINT rIndex2
                {
                  OFFSET -2.54057 -0.884171 1.56538
                  CHANNELS 3 Zrotation Xrotation Yrotation
                  End Site
                  {
                    OFFSET -1.62519 -0.234802 1.16502
                  }
                }
              }
              JOINT rMid1
              {
                OFFSET -8.24714 1.18213 3.41376
                CHANNELS 3 Zrotation Xrotation Yrotation
                JOINT rMid2
                {
                  OFFSET -3.10165 -0.590103 1.0647
                  CHANNELS 3 Zrotation Xrotation Yrotation
                  End Site
                  {
                    OFFSET -2.48547 -0.328903 0.83742
                  }
                }
              }
              JOINT rRing1
              {
                OFFSET -8.82822 0.546677 1.51678
                CHANNELS 3 Zrotation Xrotation Yrotation
                JOINT rRing2
                {
                  OFFSET -2.60934 -0.819778 -0.0198488
                  CHANNELS 3 Zrotation Xrotation Yrotation
                  End Site
                  {
                    OFFSET -2.33842 -0.294052 0.168128
                  }
                }
              }
              JOINT rPinky1
              {
                OFFSET -8.27202 -0.0477905 -0.4584
                CHANNELS 3 Zrotation Xrotation Yrotation
                JOINT rPinky2
                {
                  OFFSET -1.82734 -0.647385 -0.700984
                  CHANNELS 3 Zrotation Xrotation Yrotation
                  End Site
                  {
                    OFFSET -1.69225 -0.51767 -0.607171
                  }
                }
              }
            }
          }
        }
      }
      JOINT lCollar
      {
        OFFSET 2.68224 19.2634 -4.8768
        CHANNELS 3 Zrotation Xrotation Yrotation
        JOINT lShldr
        {
          OFFSET 8.77824 -1.95073 1.46304
          CHANNELS 3 Zrotation Xrotation Yrotation
          JOINT lForeArm
          {
            OFFSET 28.1742 -1.7115 0.48768
            CHANNELS 3 Zrotation Xrotation Yrotation
            JOINT lHand
            {
              OFFSET 22.5879 0.773209 7.07136
              CHANNELS 3 Zrotation Xrotation Yrotation
              JOINT lThumb1
              {
                OFFSET 1.2192 -0.487915 3.41376
                CHANNELS 3 Zrotation Xrotation Yrotation
                JOINT lThumb2
                {
                  OFFSET 3.37035 -0.52449 3.41376
                  CHANNELS 3 Zrotation Xrotation Yrotation
                  End Site
                  {
                    OFFSET 1.78271 -1.18214 1.43049
                  }
                }
              }
              JOINT lIndex1
              {
                OFFSET 7.75947 0.938293 5.60832
                CHANNELS 3 Zrotation Xrotation Yrotation
                JOINT lIndex2
                {
                  OFFSET 2.54057 -0.884171 1.56538
                  CHANNELS 3 Zrotation Xrotation Yrotation
                  End Site
                  {
                    OFFSET 1.62519 -0.234802 1.16502
                  }
                }
              }
              JOINT lMid1
              {
                OFFSET 8.24714 1.18213 3.41376
                CHANNELS 3 Zrotation Xrotation Yrotation
                JOINT lMid2
                {
                  OFFSET 3.10165 -0.590103 1.0647
                  CHANNELS 3 Zrotation Xrotation Yrotation
                  End Site
                  {
                    OFFSET 2.48547 -0.328903 0.83742
                  }
                }
              }
              JOINT lRing1
              {
                OFFSET 8.82822 0.546677 1.51678
                CHANNELS 3 Zrotation Xrotation Yrotation
                JOINT lRing2
                {
                  OFFSET 2.60934 -0.819778 -0.0198488
                  CHANNELS 3 Zrotation Xrotation Yrotation
                  End Site
                  {
                    OFFSET 2.33842 -0.294052 0.168128
                  }
                }
              }
              JOINT lPinky1
              {
                OFFSET 8.27202 -0.0477905 -0.4584
                CHANNELS 3 Zrotation Xrotation Yrotation
                JOINT lPinky2
                {
                  OFFSET 1.82734 -0.647385 -0.700984
                  CHANNELS 3 Zrotation Xrotation Yrotation
                  End Site
                  {
                    OFFSET 1.69225 -0.51767 -0.607171
                  }
                }
              }
            }
          }
        }
      }
    }
  }
  JOINT rButtock
  {
    OFFSET -8.77824 4.35084 1.2192
    CHANNELS 3 Zrotation Xrotation Yrotation
    JOINT rThigh
    {
      OFFSET 0 -1.70687 -2.19456
      CHANNELS 3 Zrotation Xrotation Yrotation
      JOINT rShin
      {
        OFFSET 0 -36.8199 0.73152
        CHANNELS 3 Zrotation Xrotation Yrotation
        JOINT rFoot
        {
          OFFSET 0.73152 -45.1104 -5.12064
          CHANNELS 3 Zrotation Xrotation Yrotation
          End Site
          {
            OFFSET -1.1221 -3.69964 12.103
          }
        }
      }
    }
  }
  JOINT lButtock
  {
    OFFSET 8.77824 4.35084 1.2192
    CHANNELS 3 Zrotation Xrotation Yrotation
    JOINT lThigh
    {
      OFFSET 0 -1.70687 -2.19456
      CHANNELS 3 Zrotation Xrotation Yrotation
      JOINT lShin
      {
        OFFSET 0 -36.8199 0.73152
        CHANNELS 3 Zrotation Xrotation Yrotation
        JOINT lFoot
        {
          OFFSET -0.73152 -45.1104 -5.12064
          CHANNELS 3 Zrotation Xrotation Yrotation
          End Site
          {
            OFFSET 1.1221 -3.69964 12.103
          }
        }
      }
    }
  }
}
MOTION
Frames:	4
Frame Time:	0.00833333
-40.4587 40.459 3.83138 -25.9572 -24.5764 354.737 -11.5673 37.4745 4.45754 -1.5197 0.17941 -0.125716 -5.62603 12.7606 -4.51767 26.7084 -13.4793 -5.85962 -0.0 0.0 0.0 -0.0 0.0 0.0 -5.81132e-13 -2.08834e-14 7.47058e-13 46.7981 13.3112 45.5234 -26.0606 -23.5859 56.8401 -0.205958 -12.8423 -1.83592 -2.06881e-09 -3.22784e-09 -1.49986e-09 -3.56241e-09 -5.59405e-09 -2.61349e-09 -2.06881e-09 -3.22784e-09 -1.49988e-09 7.73091 5.47488 0.417314 -2.06881e-09 -3.22785e-09 -1.49986e-09 2.90554 0.965183 0.102902 -2.0688e-09 -3.22785e-09 -1.49987e-09 10.2786 0.731801 0.0259123 -2.06881e-09 -3.22784e-09 -1.49986e-09 2.22167 -0.733487 -0.20892 -5.81259e-13 -2.08615e-14 7.46837e-13 -71.4745 -33.4731 -14.7671 5.50129 -1.80229 -9.62618 -0.00494231 4.36294 -0.610906 -8.62627e-10 -5.88793e-09 1.51992e-09 -1.46032e-09 -1.01888e-08 2.632e-09 -8.6263e-10 -5.88793e-09 1.51993e-09 -7.73091 5.47488 -0.417314 -8.62625e-10 -5.88793e-09 1.51992e-09 -2.90554 0.965183 -0.102902 -8.62634e-10 -5.88793e-09 1.51992e-09 -10.2786 0.731801 -0.0259123 -8.62623e-10 -5.88793e-09 1.51991e-09 -2.22167 -0.733487 0.20892 -2.03217e-16 0.0 -3.88251e-19 -81.2304 -58.6702 -60.7921 -175.063 75.0268 176.02 3.94441 1.14932 19.408 2.03217e-16 0.0 3.88251e-19 149.026 -35.5072 115.107 177.586 49.7912 -179.698 -8.39714 1.72667 -24.1973
-39.4313 40.6155 4.25714 -25.0658 -23.9516 354.461 -11.0662 37.6504 3.27021 -0.892451 -0.0603544 -0.384297 -5.56644 12.7253 -4.64336 26.45 -13.9919 -6.01221 -0.0 0.0 0.0 -0.0 0.0 0.0 -5.45151e-13 2.06658e-13 1.26115e-12 50.4569 14.3839 43.8306 -25.3304 -21.8085 54.0367 -0.234905 -13.6757 -1.95975 -5.06257e-09 7.4376e-09 -1.33209e-09 -8.73264e-09 1.2766e-08 -2.35407e-09 -5.06258e-09 7.43762e-09 -1.33211e-09 7.73091 5.47488 0.417314 -5.06257e-09 7.4376e-09 -1.33209e-09 2.90554 0.965183 0.102902 -5.06257e-09 7.4376e-09 -1.33209e-09 10.2786 0.731801 0.0259123 -5.06258e-09 7.43761e-09 -1.33208e-09 2.22167 -0.733487 -0.20892 -5.45363e-13 2.06665e-13 1.26085e-12 -71.1626 -33.1185 -14.1344 5.46482 -1.78446 -9.56429 0.0491495 7.49876 -1.05754 -1.03744e-09 -7.54131e-09 5.009e-09 -1.74301e-09 -1.30521e-08 8.66645e-09 -1.03744e-09 -7.54131e-09 5.00901e-09 -7.73091 5.47488 -0.417314 -1.03743e-09 -7.54131e-09 5.009e-09 -2.90554 0.965183 -0.102902 -1.03744e-09 -7.54131e-09 5.009e-09 -10.2786 0.731801 -0.0259123 -1.03743e-09 -7.54131e-09 5.00899e-09 -2.22167 -0.733487 0.20892 -2.03217e-16 0.0 -3.88251e-19 -78.2996 -61.1589 -55.8911 -173.106 80.0036 174.002 2.73702 0.961027 14.7492 2.03217e-16 0.0 3.88251e-19 149.336 -29.4277 110.212 177.718 46.6332 179.943 -10.2577 2.15614 -28.767
-38.3982 40.6994 4.63933 -24.186 -23.3062 354.238 -10.5447 37.7647 2.16565 -0.307132 -0.215145 -0.609307 -5.55551 12.737 -4.81639 26.3687 -14.6508 -6.20587 -0.0 0.0 0.0 -0.0 0.0 0.0 -4.38728e-13 3.56222e-13 1.47916e-12 53.962 15.0722 42.0882 -24.5037 -20.0691 51.2442 -0.265763 -14.5199 -2.08594 -6.72059e-09 1.36501e-08 -1.21914e-09 -1.1595e-08 2.34596e-08 -2.17662e-09 -6.72059e-09 1.36502e-08 -1.21917e-09 7.73091 5.47488 0.417314 -6.72059e-09 1.36501e-08 -1.21914e-09 2.90554 0.965183 0.102902 -6.72058e-09 1.36501e-08 -1.21914e-09 10.2786 0.731801 0.0259123 -6.72059e-09 1.36501e-08 -1.21913e-09 2.22167 -0.733487 -0.20892 -4.38985e-13 3.56222e-13 1.47881e-12 -70.3858 -31.1522 -13.365 5.79795 -1.95441 -10.1248 0.111819 9.49303 -1.34663 -1.226e-09 -8.11943e-09 6.63994e-09 -2.0611e-09 -1.40536e-08 1.14882e-08 -1.22601e-09 -8.11943e-09 6.63994e-09 -7.73091 5.47488 -0.417314 -1.226e-09 -8.11943e-09 6.63993e-09 -2.90554 0.965183 -0.102902 -1.22601e-09 -8.11943e-09 6.63993e-09 -10.2786 0.731801 -0.0259123 -1.226e-09 -8.11943e-09 6.63993e-09 -2.22167 -0.733487 0.20892 -2.03217e-16 0.0 -3.88251e-19 -75.2355 -63.3491 -50.5138 -167.024 85.0525 167.865 1.782 0.922292 11.1153 2.03217e-16 0.0 3.88251e-19 150.12 -24.7374 105.563 177.785 44.1637 179.675 -11.898 2.85014 -33.053
-37.3582 40.666 5.00217 -23.2844 -22.6817 354.096 -10.0162 37.8483 1.11839 0.267573 -0.283061 -0.803998 -5.62026 12.795 -5.02484 26.5363 -15.5168 -6.39514 -0.0 0.0 0.0 -0.0 0.0 0.0 -1.9433e-13 3.98114e-13 1.22606e-12 57.2845 15.2613 40.2683 -23.6148 -18.4064 48.4399 -0.29758 -15.327 -2.20769 -6.41288e-09 1.32272e-08 -1.23101e-09 -1.106e-08 2.27272e-08 -2.19648e-09 -6.41288e-09 1.32272e-08 -1.23103e-09 7.73091 5.47488 0.417314 -6.41288e-09 1.32272e-08 -1.23101e-09 2.90554 0.965183 0.102902 -6.41288e-09 1.32272e-08 -1.23101e-09 10.2786 0.731801 0.0259123 -6.41288e-09 1.32272e-08 -1.23099e-09 2.22167 -0.733487 -0.20892 -1.9457e-13 3.98118e-13 1.22572e-12 -68.9648 -26.6803 -12.4167 6.53287 -2.29526 -11.4495 0.136524 9.97716 -1.41796 -1.44126e-09 -6.9533e-09 5.35773e-09 -2.44361e-09 -1.20355e-08 9.27348e-09 -1.44127e-09 -6.9533e-09 5.35774e-09 -7.73091 5.47488 -0.417314 -1.44126e-09 -6.95331e-09 5.35773e-09 -2.90554 0.965183 -0.102902 -1.44127e-09 -6.95331e-09 5.35773e-09 -10.2786 0.731801 -0.0259123 -1.44126e-09 -6.9533e-09 5.35772e-09 -2.22167 -0.733487 0.20892 -2.03217e-16 0.0 -3.88251e-19 -72.0073 -65.264 -44.4475 -63.9621 88.8665 64.7595 1.23408 1.04155 8.92015 2.03217e-16 0.0 3.88251e-19 151.412 -21.3154 101.193 177.817 42.5326 179.471 -12.9836 4.38855 -37.1177
